<?xml version="1.0" standalone="no"?>
<!DOCTYPE svg PUBLIC "-//W3C//DTD SVG 20010904//EN"
 "http://www.w3.org/TR/2001/REC-SVG-20010904/DTD/svg10.dtd">
<svg version="1.0" xmlns="http://www.w3.org/2000/svg"
 width="488.000000pt" height="488.000000pt" viewBox="0 0 488.000000 488.000000"
 preserveAspectRatio="xMidYMid meet">

<g transform="translate(0.000000,488.000000) scale(0.100000,-0.100000)"
fill="#000000" stroke="none">
<path d="M0 2440 l0 -2440 2440 0 2440 0 0 2440 0 2440 -2440 0 -2440 0 0
-2440z m2350 35 l0 -1575 -50 0 -50 0 0 1575 0 1575 50 0 50 0 0 -1575z m-210
1095 l0 -200 -40 0 c-62 0 -189 -28 -249 -56 -126 -57 -191 -146 -191 -261 0
-100 48 -171 150 -223 44 -22 199 -64 278 -75 l52 -7 0 -213 0 -212 -22 3
c-381 62 -538 114 -687 228 -152 117 -224 277 -225 501 -1 167 33 270 127 393
81 106 263 221 422 267 89 26 252 53 323 54 l62 1 0 -200z m1418 -1097 l-3
-1298 -240 0 -240 0 -2 390 c-1 215 -2 450 -3 523 l0 132 -325 0 -325 0 0 225
0 225 325 0 325 0 0 153 c0 83 0 327 0 541 0 213 3 392 6 397 3 5 113 9 245 9
l239 0 -2 -1297z m-2046 -555 c91 -172 308 -296 547 -315 l81 -6 0 -206 0
-207 -72 4 c-394 17 -666 135 -840 363 -52 68 -128 203 -128 228 0 5 57 39
128 75 70 35 152 78 182 95 30 16 58 30 62 30 4 1 22 -27 40 -61z m48 -1113
c31 -16 60 -51 60 -72 0 -22 -50 -14 -82 12 -40 33 -73 32 -110 -5 -28 -29
-30 -35 -26 -86 6 -70 31 -99 88 -99 42 0 63 15 75 53 6 20 3 22 -29 22 -32 0
-36 3 -36 25 0 24 2 25 65 25 l65 0 0 -85 0 -85 -30 0 c-16 0 -30 5 -30 11 0
5 -10 3 -22 -5 -31 -22 -106 -20 -145 4 -44 27 -67 74 -67 140 0 101 55 160
147 160 26 0 61 -7 77 -15z m920 0 c31 -16 60 -51 60 -72 0 -23 -51 -14 -76
12 -25 27 -50 31 -87 14 -31 -14 -47 -48 -47 -99 0 -51 16 -85 47 -99 39 -18
63 -13 91 19 48 54 97 30 56 -28 -53 -76 -189 -66 -238 18 -26 44 -26 136 0
181 36 62 129 88 194 54z m570 -146 l0 -152 -35 6 c-19 3 -37 1 -40 -4 -11
-16 -72 -9 -98 12 -57 44 -57 154 0 198 27 22 87 28 98 11 14 -23 25 -7 25 35
0 41 2 45 25 45 l25 0 0 -151z m-1194 47 c24 -24 34 -43 34 -65 l0 -31 -85 0
c-47 0 -85 -3 -85 -8 0 -4 7 -18 16 -30 18 -26 69 -30 82 -6 6 10 20 14 43 12
l34 -3 -36 -37 c-32 -33 -43 -38 -82 -38 -83 0 -134 75 -108 159 16 54 52 81
108 81 38 0 50 -5 79 -34z m244 14 c17 -17 20 -33 20 -115 0 -95 0 -95 -25
-95 -24 0 -25 2 -25 68 0 99 -6 114 -43 110 -37 -4 -45 -23 -46 -115 -1 -60
-2 -63 -26 -63 l-25 0 0 111 0 112 35 -6 c19 -3 37 -1 40 4 11 17 74 10 95
-11z m666 -14 c30 -30 34 -40 34 -86 0 -46 -4 -56 -34 -86 -89 -89 -224 4
-186 129 14 46 59 77 114 77 30 0 45 -7 72 -34z m501 14 c28 -16 53 -65 53
-102 0 -5 -38 -8 -85 -8 -67 0 -85 -3 -85 -14 0 -39 65 -61 90 -31 13 15 70
21 70 8 -1 -14 -34 -50 -57 -62 -44 -23 -92 -14 -130 24 -34 34 -35 38 -31 92
4 48 10 61 37 85 38 34 91 37 138 8z"/>
<path d="M2906 668 c-32 -46 -8 -118 39 -118 34 0 55 26 55 69 0 64 -61 96
-94 49z"/>
<path d="M1752 684 c-34 -24 -26 -34 28 -34 28 0 50 4 50 9 0 10 -39 41 -50
41 -3 0 -16 -7 -28 -16z"/>
<path d="M2646 668 c-34 -49 -8 -118 44 -118 51 0 76 82 38 127 -17 21 -65 16
-82 -9z"/>
<path d="M3169 681 c-32 -26 -22 -33 42 -29 l54 3 -22 23 c-28 27 -44 28 -74
3z"/>
</g>
</svg>
